<svg width="24" height="24" viewBox="0 0 24 24" xmlns="http://www.w3.org/2000/svg" version="1.1" xmlns:xlink="http://www.w3.org/1999/xlink" class="d7ed-SwZDZ2"><g fill="none" fill-rule="nonzero"><path fill="#CFD2D4" d="M14 6h7v12h-7z"></path><path d="M21 4a2 2 0 0 1 2 2v3.112l-.5.289A2.998 2.998 0 0 0 21 12c0 1.084.579 2.066 1.5 2.6l.5.288V18a2 2 0 0 1-2 2H3a2 2 0 0 1-2-2v-3.112l.5-.289A2.998 2.998 0 0 0 3 12a2.998 2.998 0 0 0-1.5-2.6L1 9.113V6a2 2 0 0 1 2-2h18Zm0 2-6-.001a1 1 0 0 1-.883.994L14 7a1 1 0 0 1-1-1.001L3 6v2c1.241.93 2 2.4 2 4s-.759 3.07-2 4v2l10-.001a1 1 0 0 1 1.993-.116L15 18 21 18v-2c-1.241-.93-2-2.4-2-4s.759-3.07 2-4V6Zm-7 8a1 1 0 1 1 0 2 1 1 0 0 1 0-2Zm0-3a1 1 0 1 1 0 2 1 1 0 0 1 0-2Zm0-3a1 1 0 1 1 0 2 1 1 0 0 1 0-2Z" fill="#6F787E"></path></g></svg>